<svg width="1228" height="238" viewBox="0 0 1228 238" fill="none" xmlns="http://www.w3.org/2000/svg">
<path d="M305.023 135.281C303.087 147.864 296.031 167.108 287.997 176.541C280.862 184.917 275.745 187.941 267.997 191.041C262.997 193.041 251.559 193.86 247.043 192.378C241.021 190.401 233.132 184.983 228.997 180.541C223.961 175.131 219.437 168.083 217.217 160.448C215.5 154.541 214.998 150.424 217.215 148.26C221.497 145.041 230.708 158.556 231.997 160.448C244.236 178.403 252.718 196.956 261.515 216.874C265.093 224.976 266.2 227.651 268.997 236.041" stroke="#FAFAFA" stroke-linecap="round"/>
<path d="M391 163.207C393.702 164.836 398.038 166.536 399.647 167.007C405.193 168.632 409.018 169.423 414.779 169.722C425.233 170.264 435.251 169.734 445.195 165.816C453.063 162.716 460.64 157.902 465.909 151.161C467.499 149.125 469.246 146.274 468.971 143.519C468.567 139.455 461.543 142.815 455 151.16C446.009 162.628 440.155 185.542 438 194.042C433.701 210.996 431.533 220.212 428.831 237.042" stroke="#FAFAFA" stroke-linecap="round"/>
<path d="M399.758 126.854C406.773 121.606 414.769 120 423.5 120" stroke="#FAFAFA" stroke-linecap="round"/>
<path d="M423.5 120C417.5 120 404.409 121.73 402 115" stroke="#FAFAFA" stroke-linecap="round"/>
<path d="M610.488 188.54C608.488 192.04 604.002 196.777 598.502 200.54C589.002 207.04 577.502 208.688 567.002 208.04C554.625 207.276 540.188 198.466 534.348 187.132C531.224 181.04 528.5 169.147 536.62 166.509C542 164.76 547.966 171.296 550 173.542C559.484 184.013 566.284 200.352 572.043 213.178C577 225.041 576.5 224.041 580.988 236.54" stroke="#FAFAFA" stroke-linecap="round"/>
<path d="M549.156 133.43C553.437 123.693 559.858 115.521 567.729 108.374C572 104.495 573.5 104 575 103" stroke="#FAFAFA" stroke-linecap="round"/>
<path d="M566 110C560 114.5 553.357 114.849 548.5 114.309" stroke="#FAFAFA" stroke-linecap="round"/>
<path d="M989.5 98.0415C989.5 80.5415 1000.6 64.2936 1013 55.541C1035.32 39.7866 1064.28 38.1187 1085.44 57.8765C1109.79 80.6146 1116.58 116.132 1111.49 147.985C1108.27 165.376 1108.27 166.376 1102.27 182.876" stroke="#FAFAFA" stroke-linecap="round"/>
<path d="M254.696 132.272C253 124.541 253.714 116.015 255.175 107.755C258.096 91.2384 264.724 75.0542 278.014 64.2361C288.349 55.8227 302.464 50.0261 315.898 50.3892C327.584 50.705 339.077 57.1544 346.289 66.2742C357.041 79.8695 361.39 99.8863 360.855 116.926C360.427 130.604 356.724 144.174 350.845 156.489C346.185 166.251 340.38 175.933 333.281 184.123C332.581 184.932 329.403 188.121 329.685 187.839" stroke="#FAFAFA" stroke-linecap="round"/>
<path d="M1102.5 182.539C1109 173.498 1114.24 168.943 1122.67 164.562C1139.65 155.75 1163.56 156.091 1181 162.5C1201.41 170 1210.05 179 1220 202C1224.5 212.4 1226 224.539 1227 236.539" stroke="#FAFAFA" stroke-linecap="round"/>
<path d="M749 107.537C754.5 103.321 770.67 129.668 773.5 134.041C786.5 154.132 781.276 145.74 791.5 162.041C794.321 166.539 803.005 180.878 805.5 185.541C806.677 187.741 813.25 198.041 817.5 206.541C821.75 215.041 825.5 221.041 832 236.036" stroke="#FAFAFA" stroke-linecap="round"/>
<path d="M329.5 188.044C334.355 182.934 340.732 179.433 348 180.541C351.611 181.091 355 182.041 359 186.044" stroke="#FAFAFA" stroke-linecap="round"/>
<path d="M482.5 90.541C487.5 78.541 486.254 81.3311 491 70.543C499.231 51.8311 510 28.5464 519.554 19.65C527.183 12.543 532 26.041 533 44.8801" stroke="#FAFAFA" stroke-linecap="round"/>
<path d="M533.188 45.0071C540.5 29.042 546.003 21.4957 557.5 12.541C569.306 3.34581 587.198 -0.590854 602.044 1.58655C628.18 5.4199 645.926 30.6234 647.862 55.798C650.142 85.4327 639.7 116.363 623.026 140.841C617.695 148.667 607.721 160.655 601 167.376" stroke="#FAFAFA" stroke-linecap="round"/>
<path d="M749 107.541C745.988 109.412 745.222 124.362 743.979 145.832C743.387 156.052 743.004 165.506 743 176.541" stroke="#FAFAFA" stroke-linecap="round"/>
<path d="M743 176.812C740.857 166.817 729.747 160.101 720.252 157.452C708.112 154.066 696.352 156.368 685.191 162.103C672.496 168.626 662.234 181.999 657 194.875" stroke="#FAFAFA" stroke-linecap="round"/>
<path d="M601 167.931C614.857 155.241 642 143.541 659 169.041" stroke="#FAFAFA" stroke-linecap="round"/>
<path d="M163 159.041C150.043 137.541 149.57 115.098 150.178 100.406C151.366 71.7302 164.442 39.4806 194.281 32.0226C213.962 27.1033 236.404 31.0338 250.255 47.2976C255.158 53.0557 256.5 56.041 259 63.541" stroke="#FAFAFA" stroke-linecap="round"/>
<path d="M859.93 179.399C861.034 166.153 873.282 155.984 885.636 153.471C894.134 151.743 902.671 151.627 910.589 155.554C913.766 157.13 916.552 159.032 919.276 161.272" stroke="#FAFAFA" stroke-linecap="round"/>
<path d="M920 162.043C918.268 160.005 916.245 155.882 915 153.543C913.138 150.043 911.588 144.792 910.258 140.728C908.477 135.29 906.922 129.904 906.113 124.234C902.954 102.086 905.757 75.4088 924.513 60.0259C938.059 48.9163 961.501 50.039 973.5 57.541C979.5 61.2924 981.5 63.041 985 67.0418" stroke="#FAFAFA" stroke-linecap="round"/>
<path d="M917.493 42.591C914.483 23.7757 899.104 9.75457 876 11.0405C853.996 12.2643 840.453 26.9216 836.539 42.367C828.948 72.3239 857.55 102.49 887.457 92.1173" stroke="#FAFAFA" stroke-linecap="round"/>
<path d="M859.495 180.041C860.226 170.293 861.222 155.093 861.495 145.313C861.757 135.937 862.041 132.87 861.995 123.484C861.967 117.703 861.995 108.105 859.995 104.632C859.183 103.221 858.053 102.453 856.815 102.203C854.499 101.735 852.433 102.203 849.496 104.632C845.897 107.609 845.997 107.888 838.997 115.546C834.997 119.922 830.498 125.469 822.998 134.895C817.473 141.84 810.591 150.707 804 159.7" stroke="#FAFAFA" stroke-linecap="round"/>
<path d="M1040 116.041C1026.5 130.041 1012 132.3 1003.95 133.49C992.29 135.216 971.379 133.794 962.098 125.002C960.445 123.436 958.229 121.06 958.007 118.621C957.781 116.136 963.1 116.993 963.943 117.164C971.11 118.621 976.072 121.499 981.583 125.154C988.305 129.614 993.693 135.886 998.628 142.204C1010.75 157.721 1020.47 174.835 1029 192.541C1032.72 200.271 1040.92 218.695 1047 236.041" stroke="#FAFAFA" stroke-linecap="round"/>
<path d="M767.925 90.299C752.162 96.1402 737 100.041 722.076 101.536C720.484 101.574 718.887 101.496 717.296 101.594C716.925 101.617 715.913 101.576 716.202 101.823C717.449 102.889 718.999 103.695 720.267 104.871C725.564 109.788 728.402 117.612 727.579 124.987C726.987 130.297 725.084 135.669 721.764 139.778C718.28 144.091 712.964 146.365 707.811 147.549C696.141 150.23 683.486 147.954 673.622 140.949C667.588 136.663 661.68 130.966 657.975 124.295C656.602 121.824 655.598 118.999 654.674 116.311" stroke="#FAFAFA" stroke-linecap="round"/>
<path d="M24 235.041H240" stroke="#FAFAFA" stroke-linecap="round"/>
<path d="M293 235H408" stroke="#FAFAFA" stroke-linecap="round"/>
<path d="M449 235L559 235" stroke="#FAFAFA" stroke-linecap="round"/>
<path d="M604 235.041H808" stroke="#FAFAFA" stroke-linecap="round"/>
<path d="M858 235.041H1024" stroke="#FAFAFA" stroke-linecap="round"/>
<path d="M1067 235.041H1207" stroke="#FAFAFA" stroke-linecap="round"/>
<path d="M162.5 158.044C154 148.044 142.928 141.148 134 137.041C120.857 130.994 105.753 128.385 91.4629 129.158C76.8735 129.947 63.9323 134.842 51.2457 142.332C25.0213 157.815 7.56308 188.434 2.49143 219.77C1.68028 224.782 1 231.133 1 236.044" stroke="#FAFAFA" stroke-linecap="round"/>
<path d="M362.37 63.6573C366.363 54.7894 366.752 54.4451 370.5 46.541C373.471 40.2753 375.877 35.9605 378.691 30.907C382.831 23.4681 388.254 18.2524 395.499 20.5404C405 23.541 412.117 31.1527 420.498 39.0411C437.498 55.0411 467.498 90.5411 485.998 119.041" stroke="#FAFAFA" stroke-linecap="round"/>
<path d="M399.344 166.879C415.543 171.761 422.552 177.787 429.272 183.748C433.84 187.799 437.544 192.396 441.264 197.188C441.582 197.597 443.452 200.447 443.572 200.317" stroke="#FAFAFA" stroke-linecap="round"/>
<path d="M832 94.541C828.11 102.957 823.5 107.765 815.5 112.041C810 114.981 806.5 115.567 803.5 116.041C796.5 117.146 789.212 115.989 783.5 113.541C776.5 110.541 772.077 103.541 770.5 98.5443C767.5 89.0414 773 82.041 776.5 78.541C778.5 76.54 783.483 73.1395 786.5 75.0413C789.409 76.8754 787.5 80.775 783 83.5443C776.5 87.5443 775 87.5443 766 91.0443" stroke="#FAFAFA" stroke-linecap="round"/>
<path d="M660.5 39.041C663.348 37.1362 672.433 32.0671 675.5 30.541C682.134 27.2397 687.921 25.1104 695 23.041C712.694 17.869 722.705 16.894 740.999 15.5409C752.379 14.6992 772.316 15.0897 783.535 17.4317C792.865 19.3795 801.923 22.7445 810.402 27.0595C813.55 28.6619 816.313 30.6004 819.201 32.5767C819.51 32.7876 822.5 35.041 823 35.541" stroke="#FAFAFA" stroke-linecap="round"/>
</svg>
